<svg id="logosandtypes_com" data-name="logosandtypes com" xmlns="http://www.w3.org/2000/svg" viewBox="0 0 150 150"><defs><style>.cls-1{fill:none;}.cls-2{fill:#f58020;}.cls-3{fill:#f05123;}</style></defs><path class="cls-1" d="M0,0H150V150H0Z" transform="translate(0 0)"/><path class="cls-2" d="M87.3,58.94c-9.94-7.52-31-22.76-40.81-28.63a26.32,26.32,0,0,0-36.06,9.21c-5.75,8-3.15,27-3.68,36.22,16.17-24,48.74,10.66,68,24.06h0A295.59,295.59,0,0,0,103,119a26.31,26.31,0,0,0,36-9.38c5.68-7.94,3.09-27.12,3.62-36.27C129.51,93.09,106.1,73.16,87.3,58.94Z" transform="translate(0 0)"/><path class="cls-3" d="M63.89,101.31C51.33,92.78,25.45,66.85,11.1,82.78A20.66,20.66,0,0,0,6.75,96.42a29.68,29.68,0,0,0,5.85,17.72,27.77,27.77,0,0,0,35.82,6.61c4.41-2.64,13.11-9,21.48-14.83C69.36,105.49,64.56,101.82,63.89,101.31Z" transform="translate(0 0)"/><path class="cls-3" d="M85.53,47.82C98.07,56.36,124,82.19,138.32,66.35a20.68,20.68,0,0,0,4.35-13.64A29.66,29.66,0,0,0,136.81,35,27.74,27.74,0,0,0,101,28.49c-4.41,2.63-13.11,9-21.48,14.82Z" transform="translate(0 0)"/></svg>